<svg width="41" height="24" viewBox="0 0 41 24" fill="none" xmlns="http://www.w3.org/2000/svg">
<path opacity="0.2" d="M0.75 0V24" stroke="#7D848D" stroke-width="1.5"/>
<path d="M35.75 11V12C35.75 15.866 32.616 19 28.75 19M21.75 11V12C21.75 15.866 24.884 19 28.75 19M28.75 19V22M28.75 22H31.75M28.75 22H25.75M28.75 16C26.5409 16 24.75 14.2091 24.75 12V6C24.75 3.79086 26.5409 2 28.75 2C30.9591 2 32.75 3.79086 32.75 6V12C32.75 14.2091 30.9591 16 28.75 16Z" stroke="#7D848D" stroke-width="1.5" stroke-linecap="round" stroke-linejoin="round"/>
</svg>
