<svg width="20" height="20" viewBox="0 0 20 20" fill="none" xmlns="http://www.w3.org/2000/svg">
<path d="M16.5381 4.66237C16.5381 3.99768 15.9994 3.46097 15.3372 3.46097C14.6749 3.46097 14.1357 3.99768 14.1357 4.66237C14.1357 5.32462 14.6749 5.86133 15.3372 5.86133C15.9994 5.86133 16.5381 5.32462 16.5381 4.66237Z" fill="white"/>
<path d="M18.1388 14.0404C18.0943 15.0154 17.9312 15.5452 17.7958 15.8971C17.614 16.3636 17.397 16.6972 17.0451 17.0471C16.6972 17.397 16.3636 17.6135 15.8971 17.7933C15.5452 17.9308 15.0134 18.0943 14.0384 18.1408C12.9843 18.1872 12.6719 18.1971 9.99876 18.1971C7.32808 18.1971 7.01325 18.1872 5.95911 18.1408C4.98407 18.0943 4.45478 17.9308 4.10288 17.7933C3.63389 17.6135 3.30278 17.397 2.95289 17.0471C2.60051 16.6972 2.38356 16.3636 2.20417 15.8971C2.06873 15.5452 1.9032 15.0154 1.86116 14.0404C1.80979 12.9862 1.80038 12.6689 1.80038 10.0012C1.80038 7.32809 1.80979 7.01325 1.86116 5.95911C1.9032 4.98407 2.06873 4.45478 2.20417 4.09991C2.38356 3.63389 2.60051 3.30227 2.95289 2.95237C3.30278 2.60299 3.63389 2.38601 4.10288 2.20417C4.45478 2.06628 4.98407 1.90516 5.95911 1.85872C7.01325 1.81224 7.32808 1.80038 9.99876 1.80038C12.6719 1.80038 12.9843 1.81224 14.0384 1.85872C15.0134 1.90516 15.5452 2.06628 15.8971 2.20417C16.3636 2.38601 16.6972 2.60299 17.0451 2.95237C17.397 3.30227 17.614 3.63389 17.7958 4.09991C17.9312 4.45478 18.0943 4.98407 18.1388 5.95911C18.1877 7.01325 18.1996 7.32809 18.1996 10.0012C18.1996 12.6689 18.1877 12.9862 18.1388 14.0404ZM19.9392 5.87709C19.8903 4.81157 19.7222 4.0836 19.4727 3.44956C19.2187 2.79177 18.8781 2.2343 18.3207 1.67684C17.7657 1.12186 17.2082 0.78134 16.5504 0.524364C15.9139 0.27725 15.1884 0.107231 14.1224 0.0607872C13.0564 0.00937843 12.7159 0 9.99876 0C7.28409 0 6.94112 0.00937843 5.87512 0.0607872C4.81157 0.107231 4.08657 0.27725 3.44708 0.524364C2.79176 0.78134 2.2343 1.12186 1.67932 1.67684C1.12186 2.2343 0.781338 2.79177 0.524846 3.44956C0.277731 4.0836 0.109714 4.81157 0.0583038 5.87709C0.0118609 6.94309 0 7.28409 0 10.0012C0 12.7159 0.0118609 13.0564 0.0583038 14.1224C0.109714 15.1859 0.277731 15.9134 0.524846 16.5504C0.781338 17.2058 1.12186 17.7657 1.67932 18.3207C2.2343 18.8757 2.79176 19.2187 3.44708 19.4752C4.08657 19.7222 4.81157 19.8903 5.87512 19.9392C6.94112 19.9881 7.28409 20 9.99876 20C12.7159 20 13.0564 19.9881 14.1224 19.9392C15.1884 19.8903 15.9139 19.7222 16.5504 19.4752C17.2082 19.2187 17.7657 18.8757 18.3207 18.3207C18.8781 17.7657 19.2187 17.2058 19.4727 16.5504C19.7222 15.9134 19.8903 15.1859 19.9392 14.1224C19.9881 13.0564 20 12.7159 20 10.0012C20 7.28409 19.9881 6.94309 19.9392 5.87709Z" fill="white"/>
<path d="M9.99853 13.3317C8.1586 13.3317 6.66561 11.8411 6.66561 10.0012C6.66561 8.1583 8.1586 6.66582 9.99853 6.66582C11.839 6.66582 13.3339 8.1583 13.3339 10.0012C13.3339 11.8411 11.839 13.3317 9.99853 13.3317ZM9.99853 4.86296C7.16229 4.86296 4.86523 7.16494 4.86523 10.0012C4.86523 12.835 7.16229 15.1345 9.99853 15.1345C12.8348 15.1345 15.1343 12.835 15.1343 10.0012C15.1343 7.16494 12.8348 4.86296 9.99853 4.86296Z" fill="white"/>
</svg>
