<svg width="37" height="32" viewBox="0 0 37 32" fill="none" xmlns="http://www.w3.org/2000/svg">
<mask id="mask0_1_846" style="mask-type:alpha" maskUnits="userSpaceOnUse" x="0" y="-6" width="37" height="38">
<circle cx="18.5" cy="13.3611" r="18.5" fill="#FFEADF"/>
</mask>
<g mask="url(#mask0_1_846)">
<path d="M7.63411 22.1317L6.46755 31.861H-0.743164L-0.504133 30.2477C-0.417123 29.1864 -0.151366 28.1674 0.266658 27.2173C0.975299 25.6334 2.14597 24.3442 3.58301 23.4593V23.4569C3.6566 23.4099 3.73068 23.3698 3.80427 23.325C4.95927 22.6593 6.26643 22.2436 7.63411 22.1317Z" fill="#186BE7"/>
<path d="M37.3183 31.861H30.0872L28.8447 21.4814C29.6654 21.5487 30.4672 21.7252 31.2247 22.002C33.4127 22.7931 35.2516 24.3977 36.2126 26.5716C36.6306 27.5148 36.8941 28.536 36.9833 29.5976L37.3183 31.861Z" fill="#186BE7"/>
<path d="M32.4756 22.655L31.2427 31.8611H4.6868L3.58301 23.4594V23.4569C3.65659 23.4099 3.73068 23.3699 3.80426 23.325C5.4704 22.3425 9.25288 21.2123 11.9549 20.479C13.8613 19.962 15.8279 19.7057 17.8038 19.7147L19.9047 19.7246C21.3716 19.7312 22.8332 19.885 24.2698 20.1828C26.5946 20.6641 30.044 21.4367 31.2241 22.0022C31.6761 22.2142 32.0937 22.4336 32.4756 22.655Z" fill="#0D6EFD"/>
<path d="M24.4292 10.7432C24.4292 10.7432 25.0247 12.3762 22.3619 13.3251L22.5472 26.6712L14.6484 23.1307L15.3494 15.4159L18.3797 14.1136L19.1023 12.8084C19.1023 12.8084 20.1513 11.455 20.278 11.3217C20.4046 11.1883 21.5269 10.201 21.5269 10.201L23.9388 10.9288L24.4292 10.7432Z" fill="#FAB9C9"/>
<path d="M21.002 14.6947C21.4975 12.7313 20.2173 12.8043 18.7809 13.3907L18.3807 14.1136L15.5689 15.3219L15.2711 16.3685L14.9932 19.7095C14.993 19.7095 19.9897 18.7076 21.002 14.6947Z" fill="#1B1E28"/>
<path d="M13.1617 9.6551C13.1617 9.6551 10.9704 8.66193 11.7401 6.40885C12.5096 4.15577 12.5287 4.15589 12.369 3.09386C12.209 2.03196 12.6175 -0.611677 15.7192 0.129033C18.8211 0.869868 19.2411 0.949918 20.8242 0.28876C22.4073 -0.372398 24.5914 1.07024 24.2507 4.5764C23.9613 7.55652 23.3296 6.73228 23.93 8.32831C24.5306 9.92421 24.1774 10.3231 23.1249 10.5747C20.6865 11.1574 19.5022 9.99544 19.5022 9.94062C19.5022 9.8858 19.0212 8.66367 18.7207 8.50345C18.4201 8.3431 15.6751 7.58188 15.6151 7.66193C15.555 7.74198 14.6489 8.99916 14.6489 8.99916L13.1617 9.6551Z" fill="#1B1E28"/>
<path d="M11.9098 9.98572C12.8004 10.0342 13.7036 9.99057 14.5958 9.98237C14.6655 9.98174 14.6658 9.87311 14.5958 9.87373C13.7036 9.88081 12.7998 9.8521 11.9098 9.91574C11.8649 9.91872 11.8645 9.98361 11.9098 9.98572Z" fill="#1B1E28"/>
<path d="M13.1669 6.57951V13.4612C13.1669 13.4612 12.9519 16.7288 15.4048 16.8598C17.8578 16.9908 19.3368 16.8693 20.1329 15.9984C20.9286 15.1277 21.6777 13.5734 21.1156 9.44453C20.554 5.31537 19.9643 4.61344 19.9643 4.61344L16.9026 3.6864L14.0093 4.19193L13.1669 6.57951Z" fill="#FAB9C9"/>
<path d="M13.1631 13.7527C13.1781 14.556 13.4022 16.7531 15.4049 16.8598C17.8578 16.9908 19.3369 16.8693 20.1329 15.9984C20.7253 15.3502 21.2911 14.3223 21.3104 12.1364C21.3068 11.4258 21.2478 10.5989 21.1157 9.62799C21.0388 9.06093 20.9703 8.54595 20.9092 8.07609C20.4185 5.15452 19.9645 4.61356 19.9645 4.61356L16.9028 3.68652L14.0095 4.19206L13.2058 6.4695L13.1669 6.76298V6.83308C13.1669 6.83308 13.3144 6.45396 13.9254 6.47509C14.5365 6.4961 14.4731 6.2081 15.1893 5.41456C15.9058 4.62127 16.2568 5.62525 16.8228 6.09573C17.3887 6.56621 18.1878 5.94122 19.1146 5.91313C20.0418 5.88491 19.8589 6.99455 19.6837 7.2966C19.5079 7.59853 19.3464 8.02687 19.9085 8.2306C20.4701 8.43408 20.6665 8.52532 20.7371 9.90158C20.8071 11.278 20.4351 12.2542 19.7257 12.7174C19.0165 13.181 17.5208 13.0756 16.4814 12.2822C15.4421 11.4887 14.3149 12.2507 13.771 12.4858C13.4838 12.6097 13.2051 12.4491 13.1671 12.4256V13.4611V13.6444C13.1669 13.6447 13.1645 13.6846 13.1631 13.7527Z" fill="#E5A0B1"/>
<path d="M15.2858 8.36197C15.1744 9.2455 15.0418 10.2431 15.1589 11.1275C15.2019 11.4525 15.3937 11.7038 15.8323 11.6123C15.9444 11.5888 15.8967 11.4547 15.7847 11.473C15.0955 11.5857 15.3326 10.157 15.3392 9.90616C15.3533 9.39143 15.3781 8.87695 15.3725 8.36197C15.3719 8.3161 15.2911 8.31784 15.2858 8.36197Z" fill="#EAAABA"/>
<path d="M16.7238 10.6818C16.9219 10.6818 17.0825 10.5213 17.0825 10.3232C17.0825 10.1252 16.9219 9.9646 16.7238 9.9646C16.5258 9.9646 16.3652 10.1252 16.3652 10.3232C16.3652 10.5213 16.5258 10.6818 16.7238 10.6818Z" fill="#1B1E28"/>
<path d="M14.0012 10.6818C14.1992 10.6818 14.3598 10.5213 14.3598 10.3232C14.3598 10.1252 14.1992 9.9646 14.0012 9.9646C13.8031 9.9646 13.6426 10.1252 13.6426 10.3232C13.6426 10.5213 13.8031 10.6818 14.0012 10.6818Z" fill="#1B1E28"/>
<path d="M13.3406 9.07383C13.551 8.98918 13.7254 8.87022 13.9583 8.84176C14.2156 8.80956 14.4218 8.88427 14.6599 8.96506C14.7588 8.99837 14.7975 8.86227 14.7259 8.80882C14.3451 8.52454 13.5517 8.57065 13.273 8.9857C13.2451 9.02672 13.292 9.09359 13.3406 9.07383Z" fill="#1B1E28"/>
<path d="M16.4114 8.9625C16.6323 8.87685 16.8065 8.78127 17.0538 8.79258C17.3012 8.80414 17.5027 8.90631 17.7306 8.98699C17.83 9.02229 17.8669 8.88456 17.7964 8.83074C17.4364 8.55578 16.6364 8.44615 16.3436 8.87437C16.315 8.91551 16.3628 8.98127 16.4114 8.9625Z" fill="#1B1E28"/>
<path d="M18.5717 11.0082C18.6988 11.321 18.4573 11.7144 18.0319 11.8873C17.6066 12.0604 17.159 11.9469 17.0319 11.6343C16.9048 11.3222 17.1465 10.9287 17.5719 10.7555C17.997 10.583 18.4449 10.6959 18.5717 11.0082Z" fill="#EAAABA"/>
<path d="M13.7361 10.8244C13.5418 10.7373 13.341 10.7108 13.166 10.7368V11.9334C13.1854 11.9436 13.205 11.9535 13.2256 11.9627C13.653 12.1545 14.1143 12.0555 14.2551 11.7409C14.3961 11.4269 14.1635 11.0167 13.7361 10.8244Z" fill="#EAAABA"/>
<path d="M14.9955 9.72802C15.0693 10.4942 14.649 11.2372 13.8753 11.4411C13.0029 11.6711 12.1155 11.0718 11.9808 10.1905C11.8545 9.36195 12.429 8.58594 13.2564 8.45928C14.1143 8.32851 14.8274 8.91683 14.9968 9.73933C15.008 9.79265 15.0891 9.76991 15.0779 9.71708C14.9014 8.8599 14.1385 8.22609 13.2381 8.36829C12.37 8.50552 11.7615 9.33299 11.8889 10.2026C12.0161 11.0706 12.8538 11.685 13.7185 11.5581C14.6202 11.426 15.1638 10.602 15.0797 9.72777C15.0745 9.67469 14.9904 9.67432 14.9955 9.72802Z" fill="#1B1E28"/>
<path d="M18.8593 10.0002C18.8146 10.8286 18.1934 11.5293 17.3302 11.5293C16.5014 11.5293 15.801 10.8286 15.801 10.0002C15.801 9.22845 16.4054 8.56754 17.1668 8.48824C18.09 8.39265 18.811 9.09893 18.8593 10.0002C18.8621 10.0541 18.9464 10.0544 18.9435 10.0002C18.8962 9.12379 18.2451 8.38693 17.3302 8.38693C16.4548 8.38693 15.7126 9.1218 15.7168 10.0002C15.7209 10.8475 16.3971 11.5642 17.2446 11.6086C18.1924 11.6584 18.8944 10.9102 18.9435 10.0002C18.9465 9.94592 18.8623 9.94592 18.8593 10.0002Z" fill="#1B1E28"/>
<path d="M15.007 9.90748C15.2383 9.9485 15.5159 9.95061 15.7487 9.91792C15.7813 9.91344 15.7813 9.85713 15.7487 9.85254C15.5159 9.82034 15.2388 9.82208 15.007 9.8631C14.9846 9.86683 14.9846 9.90338 15.007 9.90748Z" fill="#1B1E28"/>
<path d="M18.8336 9.93589C19.7243 9.98425 20.6275 9.94062 21.5196 9.93254C21.5893 9.93191 21.5896 9.82315 21.5196 9.82365C20.6273 9.83086 19.7235 9.80214 18.8336 9.86566C18.7887 9.86889 18.7884 9.93341 18.8336 9.93589Z" fill="#1B1E28"/>
<path d="M24.4236 10.7432C23.7577 9.04601 21.207 10.201 21.207 10.201L21 11.8611L22.257 11.3811C22.3021 11.4938 23.474 11.5162 23.474 11.5162L24.4236 10.7432Z" fill="#FAB9C9"/>
<path d="M22.1972 10.2824C22.8964 10.1754 23.5716 10.788 23.4922 11.5025C23.48 11.6148 23.3024 11.6161 23.3144 11.5025C23.3797 10.9151 22.8405 10.3625 22.2443 10.4536C22.1324 10.4709 22.0843 10.2998 22.1972 10.2824Z" fill="#E6A0B1"/>
<path d="M23.1652 10.804C22.8722 10.932 22.6529 11.1684 22.5572 11.475C22.5237 11.5841 22.3521 11.5375 22.3863 11.4279C22.4941 11.0806 22.7411 10.7967 23.0756 10.6506C23.1796 10.6054 23.2701 10.7583 23.1652 10.804Z" fill="#E6A0B1"/>
<path d="M14.1885 0.813774C13.1628 1.50713 12.9528 2.82559 13.4264 3.92031C13.4417 3.95586 13.4934 3.92503 13.4784 3.88998C13.0186 2.8277 13.2208 1.54019 14.2188 0.865607C14.2509 0.843979 14.2206 0.791773 14.1885 0.813774Z" fill="white"/>
<path d="M12.4038 8.21796C12.4897 8.39136 12.5684 8.56662 12.6743 8.72896C12.6954 8.76128 12.7476 8.7312 12.7263 8.69863C12.6201 8.53617 12.5415 8.3609 12.4558 8.18775C12.4386 8.15307 12.3867 8.18352 12.4038 8.21796Z" fill="white"/>
<path d="M19.9941 6.29947C19.9941 6.36634 19.9941 6.43297 19.9941 6.49984C19.9941 6.5385 20.0543 6.5385 20.0543 6.49984C20.0543 6.43297 20.0543 6.36634 20.0543 6.29947C20.0543 6.26081 19.9941 6.26081 19.9941 6.29947Z" fill="white"/>
<path d="M19.9169 7.16595C19.8987 7.19056 19.895 7.22151 19.8769 7.24613C19.8538 7.27732 19.906 7.30716 19.9288 7.27645C19.9472 7.25184 19.951 7.22089 19.9689 7.19628C19.9919 7.16508 19.9396 7.135 19.9169 7.16595Z" fill="white"/>
<path d="M23.3981 7.04091C23.3273 7.71599 23.3408 8.25633 23.5996 8.89213C23.6142 8.92755 23.6722 8.91226 23.6577 8.87634C23.4032 8.25098 23.3887 7.70256 23.4583 7.04091C23.4625 7.00225 23.4021 7.00262 23.3981 7.04091Z" fill="white"/>
<path d="M15.4047 16.8598C17.8577 16.9909 19.3368 16.8693 20.1328 15.9984C20.9286 15.1277 21.6776 13.5734 21.1155 9.44454C20.5539 5.31538 20.4392 3.84502 20.4392 3.84502L18.3052 2.68777L13.6436 2.97342L13.1668 6.57939V6.6495C13.1668 6.6495 13.3142 6.27051 13.9253 6.29139C14.5364 6.31252 14.473 6.02451 15.1892 5.2311C15.9057 4.43781 16.2567 5.44179 16.8226 5.91227C17.3886 6.38262 18.1877 5.75776 19.1145 5.72967C20.0417 5.70146 19.8588 6.81097 19.6836 7.11302C19.5078 7.41507 19.3463 7.84329 19.9084 8.04702C20.47 8.25062 20.6664 8.34174 20.737 9.718C20.807 11.0944 20.435 12.0706 19.7256 12.5339C19.0164 12.9974 17.5207 12.8921 16.4813 12.0986C15.442 11.3052 14.3147 12.0673 13.7709 12.3023C13.4837 12.4261 13.205 12.2655 13.1669 12.2422V13.4611C13.1668 13.4612 12.9518 16.7288 15.4047 16.8598Z" fill="#1B1E28"/>
<path d="M12.8797 4.53639C12.9015 5.16735 12.5167 5.67959 12.2787 6.2377C12.1104 6.63211 12.0864 7.05971 12.0983 7.48159C12.0993 7.52024 12.1595 7.52049 12.1583 7.48159C12.1402 6.83969 12.2869 6.33826 12.567 5.76611C12.769 5.35392 12.956 5.00613 12.9397 4.53639C12.9385 4.49774 12.8783 4.49761 12.8797 4.53639Z" fill="white"/>
<path d="M19.9759 1.64016C20.684 1.74842 21.4078 1.59889 22.1053 1.7969C23.4619 2.18161 23.1458 4.19591 22.7229 5.14246C22.7071 5.17752 22.7591 5.20797 22.7746 5.17267C23.197 4.22761 23.3673 3.00063 22.7069 2.11983C22.1252 1.34419 20.7999 1.70566 19.9919 1.58223C19.9541 1.57639 19.9376 1.63431 19.9759 1.64016Z" fill="white"/>
<path d="M16.5469 4.8169C16.6075 6.6307 18.8814 4.61565 19.6615 5.51945C19.6867 5.54866 19.7292 5.50615 19.704 5.47681C18.9072 4.5535 16.664 6.51945 16.6072 4.81677C16.6059 4.77824 16.5458 4.77812 16.5469 4.8169Z" fill="white"/>
<path d="M15.315 16.9035C16.3216 16.91 17.3439 17.0321 18.3459 16.8854C19.4248 16.7274 20.1587 16.3079 20.7206 15.3707C20.7405 15.3374 20.6886 15.3073 20.6687 15.3405C20.052 16.3683 19.1955 16.7475 18.0285 16.8597C17.1268 16.9463 16.2177 16.8491 15.315 16.8433C15.2765 16.843 15.2765 16.9032 15.315 16.9035Z" fill="white"/>
<path d="M15.1706 13.0025C15.4231 13.5657 16.4656 13.339 16.4666 12.724C16.4666 12.6583 16.3764 12.634 16.3433 12.6907C16.2258 12.8909 16.1488 13.0791 15.898 13.1437C15.6354 13.2116 15.4436 13.0726 15.2418 12.9311C15.1943 12.8979 15.1517 12.9603 15.1706 13.0025Z" fill="white"/>
<path d="M14.8545 21.3474C17.0397 23.9063 19.4233 23.5725 21.9366 21.3474L21.9368 31.8609H14.8546V21.3474H14.8545Z" fill="#E3EEF1"/>
<path d="M15.0462 18.6917L10.0801 20.3961C12.368 24.3219 13.5785 28.1321 13.5681 31.8119H15.7877C16.925 27.8416 16.536 23.4271 15.0462 18.6917Z" fill="#186BE7"/>
<path d="M22.3804 18.6917L27.3466 20.3961C25.0585 24.3219 23.848 28.1321 23.8584 31.8119H21.6387C20.5019 27.8416 20.8907 23.4271 22.3804 18.6917Z" fill="#186BE7"/>
</g>
</svg>
