<svg width="24" height="20" viewBox="0 0 24 20" fill="none" xmlns="http://www.w3.org/2000/svg">
<path d="M7.54774 20C16.6048 20 21.5577 12.3062 21.5577 5.63442C21.5577 5.41591 21.5534 5.1984 21.5438 4.98179C22.5075 4.2668 23.3392 3.38147 24 2.36731C23.1177 2.76948 22.1683 3.04017 21.1724 3.16223C22.1889 2.5371 22.9694 1.54837 23.3376 0.369627C22.371 0.957617 21.3135 1.37209 20.2109 1.59519C19.3123 0.613816 18.0332 0 16.6166 0C13.8974 0 11.6924 2.26112 11.6924 5.04827C11.6924 5.44449 11.7356 5.82989 11.8201 6.19951C7.72765 5.98836 4.09879 3.97927 1.67015 0.924316C1.23274 1.69477 1.00265 2.57049 1.0034 3.46199C1.0034 5.21368 1.8727 6.76006 3.19461 7.66473C2.41269 7.64027 1.64792 7.4237 0.964578 7.03324C0.963853 7.05446 0.963853 7.07511 0.963853 7.09773C0.963853 9.54292 2.66115 11.5845 4.91422 12.0471C4.49105 12.1653 4.0544 12.225 3.61582 12.2248C3.30522 12.2246 2.99535 12.1941 2.69038 12.1337C3.31727 14.1398 5.13505 15.5997 7.29018 15.6404C5.60489 16.9949 3.48189 17.8016 1.17453 17.8016C0.777573 17.8016 0.385444 17.7785 0 17.7318C2.17922 19.164 4.76684 19.9998 7.54798 19.9998" fill="white"/>
</svg>
