<svg width="24" height="24" viewBox="0 0 24 24" fill="none" xmlns="http://www.w3.org/2000/svg">
<path d="M2 9.65356L11.0033 2.45092C11.7548 1.84969 12.8227 1.84969 13.5742 2.45092L22.5775 9.65356" stroke="#0D6EFD" stroke-width="1.5" stroke-linecap="round" stroke-linejoin="round"/>
<path d="M9.69366 3.53106L5.57816 6.87491C4.83094 7.48203 4.45732 7.78559 4.25759 8.20522C4.05786 8.62484 4.05786 9.10623 4.05786 10.069V13.769C4.05786 17.6491 4.05786 19.5892 5.26326 20.7945C6.46867 22 8.40873 22 12.2889 22C16.169 22 18.1091 22 19.3144 20.7945C20.5199 19.5892 20.5199 17.6491 20.5199 13.769V10.069C20.5199 9.10623 20.5199 8.62484 20.3202 8.20522C20.1204 7.78559 19.7468 7.48203 18.9996 6.87491L14.8841 3.53106C13.641 2.52106 13.0195 2.01605 12.2889 2.01605C11.5583 2.01605 10.9367 2.52106 9.69366 3.53106Z" stroke="#0D6EFD" stroke-width="1.5"/>
<path d="M9.97363 16.084H14.6036" stroke="#0D6EFD" stroke-width="1.5" stroke-linecap="round"/>
</svg>
